<mxfile host="app.diagrams.net" modified="2023-08-01T04:19:22.452Z" agent="Mozilla/5.0 (Windows NT 10.0; Win64; x64) AppleWebKit/537.36 (KHTML, like Gecko) Chrome/115.0.0.0 Safari/537.36" etag="shooEMInJhhtfJLsSJYF" version="21.6.5" type="github">
  <diagram name="페이지-1" id="sYgcCLTAoJjAeG1pjwmj">
    <mxGraphModel dx="1615" dy="871" grid="1" gridSize="10" guides="1" tooltips="1" connect="1" arrows="1" fold="1" page="1" pageScale="1" pageWidth="827" pageHeight="1169" math="0" shadow="0">
      <root>
        <mxCell id="0" />
        <mxCell id="1" parent="0" />
        <mxCell id="4KqqWzj8_jCF8s9pvPA0-2" value="걸으러 나가야겠다는&amp;nbsp;&lt;br&gt;생각을 한다" style="ellipse;whiteSpace=wrap;html=1;" parent="1" vertex="1">
          <mxGeometry x="130" y="524.01" width="130" height="56.25" as="geometry" />
        </mxCell>
        <mxCell id="4KqqWzj8_jCF8s9pvPA0-3" value="나 ( = 혜진)&amp;nbsp;" style="shape=umlActor;verticalLabelPosition=bottom;verticalAlign=top;html=1;" parent="1" vertex="1">
          <mxGeometry x="5" y="564.13" width="60" height="97.5" as="geometry" />
        </mxCell>
        <mxCell id="4KqqWzj8_jCF8s9pvPA0-4" value="&lt;div style=&quot;&quot;&gt;&lt;span style=&quot;background-color: initial;&quot;&gt;&amp;lt; 숙제_0726&amp;gt;&amp;nbsp;&lt;/span&gt;&lt;/div&gt;&lt;div style=&quot;&quot;&gt;&lt;span style=&quot;background-color: initial;&quot;&gt;나한테 친숙한 행동 한 가지를 가지고 Use case diagram 만들기&amp;nbsp;&lt;/span&gt;&lt;/div&gt;&lt;div style=&quot;text-align: left;&quot;&gt;=&amp;gt; 저녁을 먹고 언니랑 천호공원을&amp;nbsp;&lt;strike&gt;산책&amp;nbsp;&lt;/strike&gt;걷는다&amp;nbsp;&lt;/div&gt;" style="rounded=0;whiteSpace=wrap;html=1;fillColor=#d5e8d4;strokeColor=#82b366;" parent="1" vertex="1">
          <mxGeometry x="40" y="20" width="350" height="60" as="geometry" />
        </mxCell>
        <mxCell id="XLeCKCvdoxdbFb9m1tCh-6" value="&lt;div style=&quot;text-align: center;&quot;&gt;&lt;span style=&quot;background-color: initial;&quot;&gt;&amp;lt; 시작점&amp;nbsp; &amp;gt;&amp;nbsp;&lt;/span&gt;&lt;/div&gt;&lt;div style=&quot;&quot;&gt;&lt;span style=&quot;background-color: initial;&quot;&gt;나는 언니랑 저녁을 먹고 집에서 쉬고 있는 중이다.&lt;/span&gt;&lt;/div&gt;&lt;div style=&quot;&quot;&gt;&lt;span style=&quot;background-color: initial;&quot;&gt;&lt;br&gt;&lt;/span&gt;&lt;/div&gt;&lt;div style=&quot;text-align: center;&quot;&gt;&lt;span style=&quot;background-color: initial;&quot;&gt;&amp;lt; 종료점 &amp;gt;&amp;nbsp;&lt;/span&gt;&lt;/div&gt;&lt;div style=&quot;&quot;&gt;공원에서 걷고 나온다.&amp;nbsp;&lt;/div&gt;&lt;div style=&quot;&quot;&gt;&lt;span style=&quot;background-color: initial;&quot;&gt;&amp;nbsp;( 이후 집에갈지 마트 갈지 카페갈지 모름)&amp;nbsp;&lt;/span&gt;&lt;/div&gt;&amp;nbsp;- 후보지 :집 or 마트 or 다이소 or 올영 or&amp;nbsp; 빵집 or 서점&lt;br&gt;&lt;br&gt;&amp;nbsp;- 조건&amp;nbsp;&lt;br&gt;&amp;nbsp;1) 어디를 걸을 지&amp;nbsp; 장소는 fix되어있다 (천호공원)&lt;br&gt;&amp;nbsp;2) 비나 눈이 오지않는 날에만 걸으러나간다&amp;nbsp;&lt;br&gt;&amp;nbsp;" style="rounded=1;whiteSpace=wrap;html=1;absoluteArcSize=1;arcSize=14;strokeWidth=2;align=left;" parent="1" vertex="1">
          <mxGeometry x="40" y="90" width="320" height="175" as="geometry" />
        </mxCell>
        <mxCell id="XLeCKCvdoxdbFb9m1tCh-21" value="언니한테 갈건지 묻는다 (나-&amp;gt;언니한테)" style="ellipse;whiteSpace=wrap;html=1;" parent="1" vertex="1">
          <mxGeometry x="180" y="430.5" width="137" height="70" as="geometry" />
        </mxCell>
        <mxCell id="XLeCKCvdoxdbFb9m1tCh-24" value="답변을 듣는다&lt;br&gt;(응답)" style="ellipse;whiteSpace=wrap;html=1;" parent="1" vertex="1">
          <mxGeometry x="252" y="351" width="100" height="60" as="geometry" />
        </mxCell>
        <mxCell id="FUzFIuwG7qgmaGk0ISnc-17" value="" style="edgeStyle=orthogonalEdgeStyle;rounded=0;orthogonalLoop=1;jettySize=auto;html=1;" parent="1" source="XLeCKCvdoxdbFb9m1tCh-74" target="XLeCKCvdoxdbFb9m1tCh-76" edge="1">
          <mxGeometry relative="1" as="geometry" />
        </mxCell>
        <mxCell id="XLeCKCvdoxdbFb9m1tCh-74" value="&lt;font style=&quot;font-size: 11px;&quot;&gt;현관문을 열고 나간다&lt;br&gt;&lt;/font&gt;" style="ellipse;whiteSpace=wrap;html=1;" parent="1" vertex="1">
          <mxGeometry x="571.5" y="556.88" width="80" height="60" as="geometry" />
        </mxCell>
        <mxCell id="FUzFIuwG7qgmaGk0ISnc-18" value="" style="edgeStyle=orthogonalEdgeStyle;rounded=0;orthogonalLoop=1;jettySize=auto;html=1;" parent="1" source="XLeCKCvdoxdbFb9m1tCh-76" edge="1">
          <mxGeometry relative="1" as="geometry">
            <mxPoint x="791.5000444444643" y="586.8" as="targetPoint" />
          </mxGeometry>
        </mxCell>
        <mxCell id="XLeCKCvdoxdbFb9m1tCh-76" value="&lt;font style=&quot;font-size: 11px;&quot;&gt;엘레베이터 &lt;br&gt;버튼을 누른다&amp;nbsp;&lt;br&gt;&lt;/font&gt;" style="ellipse;whiteSpace=wrap;html=1;" parent="1" vertex="1">
          <mxGeometry x="676.5" y="557.13" width="90" height="60" as="geometry" />
        </mxCell>
        <mxCell id="XTdCZt_rwrbxKGFYCelY-1" value="" style="edgeStyle=orthogonalEdgeStyle;rounded=0;orthogonalLoop=1;jettySize=auto;html=1;" edge="1" parent="1">
          <mxGeometry relative="1" as="geometry">
            <mxPoint x="1002.4999501625584" y="586.2758620689655" as="sourcePoint" />
            <mxPoint x="1038.00002086783" y="587.1034482758621" as="targetPoint" />
          </mxGeometry>
        </mxCell>
        <mxCell id="XLeCKCvdoxdbFb9m1tCh-77" value="&lt;font style=&quot;font-size: 11px;&quot;&gt;천호공원 쪽으로&lt;br&gt;걸어간다&lt;br&gt;&lt;/font&gt;" style="ellipse;whiteSpace=wrap;html=1;" parent="1" vertex="1">
          <mxGeometry x="915.5" y="562.62" width="96" height="47.38" as="geometry" />
        </mxCell>
        <mxCell id="FUzFIuwG7qgmaGk0ISnc-45" value="" style="edgeStyle=orthogonalEdgeStyle;rounded=0;orthogonalLoop=1;jettySize=auto;html=1;" parent="1" edge="1">
          <mxGeometry relative="1" as="geometry">
            <mxPoint x="1112.99999704" y="587.12" as="sourcePoint" />
            <mxPoint x="1143.1500108220293" y="587.8" as="targetPoint" />
          </mxGeometry>
        </mxCell>
        <mxCell id="XLeCKCvdoxdbFb9m1tCh-84" value="&lt;font style=&quot;font-size: 11px;&quot;&gt;공원입구로 &lt;br&gt;들어간다&amp;nbsp;&lt;br&gt;&lt;/font&gt;" style="ellipse;whiteSpace=wrap;html=1;fillColor=#FAF6F0;gradientColor=#FAF6F0;strokeColor=default;" parent="1" vertex="1">
          <mxGeometry x="1038" y="561" width="74" height="50" as="geometry" />
        </mxCell>
        <mxCell id="FUzFIuwG7qgmaGk0ISnc-16" value="" style="edgeStyle=orthogonalEdgeStyle;rounded=0;orthogonalLoop=1;jettySize=auto;html=1;" parent="1" source="FUzFIuwG7qgmaGk0ISnc-1" target="XLeCKCvdoxdbFb9m1tCh-74" edge="1">
          <mxGeometry relative="1" as="geometry" />
        </mxCell>
        <mxCell id="FUzFIuwG7qgmaGk0ISnc-1" value="옷을 갈아입는다" style="ellipse;whiteSpace=wrap;html=1;" parent="1" vertex="1">
          <mxGeometry x="440" y="564.99" width="100" height="42.63" as="geometry" />
        </mxCell>
        <mxCell id="FUzFIuwG7qgmaGk0ISnc-15" value="" style="edgeStyle=orthogonalEdgeStyle;rounded=0;orthogonalLoop=1;jettySize=auto;html=1;" parent="1" source="FUzFIuwG7qgmaGk0ISnc-3" edge="1">
          <mxGeometry relative="1" as="geometry">
            <mxPoint x="440" y="586" as="targetPoint" />
          </mxGeometry>
        </mxCell>
        <mxCell id="FUzFIuwG7qgmaGk0ISnc-3" value="&lt;font style=&quot;font-size: 11px;&quot;&gt;산책하기 좋은 옷을 &lt;br&gt;고른다&lt;br&gt;&lt;/font&gt;" style="ellipse;whiteSpace=wrap;html=1;" parent="1" vertex="1">
          <mxGeometry x="301.5" y="558.38" width="108.5" height="54.75" as="geometry" />
        </mxCell>
        <mxCell id="FUzFIuwG7qgmaGk0ISnc-19" value="" style="edgeStyle=orthogonalEdgeStyle;rounded=0;orthogonalLoop=1;jettySize=auto;html=1;" parent="1" source="FUzFIuwG7qgmaGk0ISnc-11" target="XLeCKCvdoxdbFb9m1tCh-77" edge="1">
          <mxGeometry relative="1" as="geometry" />
        </mxCell>
        <mxCell id="FUzFIuwG7qgmaGk0ISnc-11" value="&lt;font style=&quot;font-size: 11px;&quot;&gt;엘레베이터를 &lt;br&gt;이용해서 내려간다&amp;nbsp;&lt;br&gt;&lt;/font&gt;" style="ellipse;whiteSpace=wrap;html=1;" parent="1" vertex="1">
          <mxGeometry x="791.5" y="555" width="100" height="60" as="geometry" />
        </mxCell>
        <mxCell id="FUzFIuwG7qgmaGk0ISnc-27" value="3바퀴쯤 걷고난 후&lt;br&gt;운동 기구쪽으로 간다&amp;nbsp;" style="ellipse;whiteSpace=wrap;html=1;" parent="1" vertex="1">
          <mxGeometry x="1313" y="556.88" width="133.5" height="60" as="geometry" />
        </mxCell>
        <mxCell id="FUzFIuwG7qgmaGk0ISnc-28" value="팔운동기구를 &lt;br&gt;사용한다" style="ellipse;whiteSpace=wrap;html=1;" parent="1" vertex="1">
          <mxGeometry x="1410" y="464.01" width="95" height="60" as="geometry" />
        </mxCell>
        <mxCell id="FUzFIuwG7qgmaGk0ISnc-31" value="기구 사용이 어려울 시&lt;br&gt;1바퀴 더 걷고온다&amp;nbsp;" style="ellipse;whiteSpace=wrap;html=1;" parent="1" vertex="1">
          <mxGeometry x="1390" y="650.0000000000001" width="127" height="60" as="geometry" />
        </mxCell>
        <mxCell id="FUzFIuwG7qgmaGk0ISnc-67" value="" style="edgeStyle=orthogonalEdgeStyle;rounded=0;orthogonalLoop=1;jettySize=auto;html=1;" parent="1" edge="1">
          <mxGeometry relative="1" as="geometry">
            <mxPoint x="1582" y="585.7799999999999" as="sourcePoint" />
            <mxPoint x="1627" y="585.7799999999999" as="targetPoint" />
          </mxGeometry>
        </mxCell>
        <mxCell id="FUzFIuwG7qgmaGk0ISnc-32" value="2바퀴쯤 더 걷는다" style="ellipse;whiteSpace=wrap;html=1;" parent="1" vertex="1">
          <mxGeometry x="1490" y="553.13" width="105" height="60" as="geometry" />
        </mxCell>
        <mxCell id="FUzFIuwG7qgmaGk0ISnc-61" value="" style="edgeStyle=orthogonalEdgeStyle;rounded=0;orthogonalLoop=1;jettySize=auto;html=1;" parent="1" edge="1">
          <mxGeometry relative="1" as="geometry">
            <mxPoint x="1273.999681963522" y="586.5263157894738" as="sourcePoint" />
            <mxPoint x="1314.000221976477" y="587.0526315789473" as="targetPoint" />
          </mxGeometry>
        </mxCell>
        <mxCell id="FUzFIuwG7qgmaGk0ISnc-35" value="트랙을 반시계방향으로 &lt;br&gt;3바퀴 쯤 걷는다&amp;nbsp;" style="ellipse;whiteSpace=wrap;html=1;" parent="1" vertex="1">
          <mxGeometry x="1143" y="559.76" width="137" height="53.37" as="geometry" />
        </mxCell>
        <mxCell id="FUzFIuwG7qgmaGk0ISnc-36" value="지나가는 개 &amp;amp; 주인이랑 &lt;br&gt;얘기하면서 걷는다&amp;nbsp;" style="ellipse;whiteSpace=wrap;html=1;" parent="1" vertex="1">
          <mxGeometry x="1050" y="438" width="150" height="55" as="geometry" />
        </mxCell>
        <mxCell id="FUzFIuwG7qgmaGk0ISnc-37" value="&amp;nbsp; 언니와 &lt;br&gt;일상 얘기를 하면서 걷는다" style="ellipse;whiteSpace=wrap;html=1;" parent="1" vertex="1">
          <mxGeometry x="1210" y="443" width="156" height="50" as="geometry" />
        </mxCell>
        <mxCell id="FUzFIuwG7qgmaGk0ISnc-38" value="혼자 걷는다 &lt;br&gt;(언니 낙오)" style="ellipse;whiteSpace=wrap;html=1;" parent="1" vertex="1">
          <mxGeometry x="1090" y="680" width="97" height="50" as="geometry" />
        </mxCell>
        <mxCell id="FUzFIuwG7qgmaGk0ISnc-39" value="공원을 &lt;br&gt;(들어왔던입구로) &lt;br&gt;빠져 나온다" style="ellipse;whiteSpace=wrap;html=1;" parent="1" vertex="1">
          <mxGeometry x="1627" y="554.76" width="95" height="60" as="geometry" />
        </mxCell>
        <mxCell id="FUzFIuwG7qgmaGk0ISnc-41" value="&amp;lt;&amp;lt;extend&amp;gt;&amp;gt;" style="html=1;verticalAlign=bottom;labelBackgroundColor=none;endArrow=open;endFill=0;dashed=1;rounded=0;exitX=0.626;exitY=1.033;exitDx=0;exitDy=0;exitPerimeter=0;entryX=0.248;entryY=0.119;entryDx=0;entryDy=0;entryPerimeter=0;" parent="1" edge="1">
          <mxGeometry x="-0.2012" y="-6" width="160" relative="1" as="geometry">
            <mxPoint x="1139.9" y="491.81500000000005" as="sourcePoint" />
            <mxPoint x="1172.976" y="564.1110299999998" as="targetPoint" />
            <mxPoint as="offset" />
          </mxGeometry>
        </mxCell>
        <mxCell id="FUzFIuwG7qgmaGk0ISnc-42" value="&amp;lt;&amp;lt;extend&amp;gt;&amp;gt;" style="html=1;verticalAlign=bottom;labelBackgroundColor=none;endArrow=open;endFill=0;dashed=1;rounded=0;exitX=0.5;exitY=1;exitDx=0;exitDy=0;entryX=0.769;entryY=-0.011;entryDx=0;entryDy=0;entryPerimeter=0;" parent="1" edge="1">
          <mxGeometry width="160" relative="1" as="geometry">
            <mxPoint x="1264.9999999999995" y="486.5" as="sourcePoint" />
            <mxPoint x="1248.3529999999996" y="565.17293" as="targetPoint" />
          </mxGeometry>
        </mxCell>
        <mxCell id="FUzFIuwG7qgmaGk0ISnc-43" value="&amp;lt;&amp;lt;extend&amp;gt;&amp;gt;" style="html=1;verticalAlign=bottom;labelBackgroundColor=none;endArrow=open;endFill=0;dashed=1;rounded=0;" parent="1" edge="1">
          <mxGeometry x="-0.0467" y="9" width="160" relative="1" as="geometry">
            <mxPoint x="1150" y="680" as="sourcePoint" />
            <mxPoint x="1178.2608900576588" y="607.6200444602161" as="targetPoint" />
            <mxPoint as="offset" />
            <Array as="points" />
          </mxGeometry>
        </mxCell>
        <mxCell id="FUzFIuwG7qgmaGk0ISnc-46" value="언니의 콜을 받는다 &lt;br&gt;(= 언니가 걷자고 한다)" style="ellipse;whiteSpace=wrap;html=1;" parent="1" vertex="1">
          <mxGeometry x="110" y="660" width="140" height="60" as="geometry" />
        </mxCell>
        <mxCell id="FUzFIuwG7qgmaGk0ISnc-48" value="" style="endArrow=classic;html=1;rounded=0;" parent="1" edge="1">
          <mxGeometry width="50" height="50" relative="1" as="geometry">
            <mxPoint x="56" y="622" as="sourcePoint" />
            <mxPoint x="136" y="562" as="targetPoint" />
          </mxGeometry>
        </mxCell>
        <mxCell id="FUzFIuwG7qgmaGk0ISnc-49" value="" style="endArrow=classic;html=1;rounded=0;" parent="1" edge="1">
          <mxGeometry width="50" height="50" relative="1" as="geometry">
            <mxPoint x="57" y="620.13" as="sourcePoint" />
            <mxPoint x="144" y="670.13" as="targetPoint" />
          </mxGeometry>
        </mxCell>
        <mxCell id="FUzFIuwG7qgmaGk0ISnc-50" value="" style="endArrow=classic;html=1;rounded=0;" parent="1" edge="1">
          <mxGeometry width="50" height="50" relative="1" as="geometry">
            <mxPoint x="210.71000000000004" y="524.01" as="sourcePoint" />
            <mxPoint x="230" y="500" as="targetPoint" />
          </mxGeometry>
        </mxCell>
        <mxCell id="FUzFIuwG7qgmaGk0ISnc-51" value="" style="endArrow=classic;html=1;rounded=0;" parent="1" edge="1">
          <mxGeometry width="50" height="50" relative="1" as="geometry">
            <mxPoint x="267" y="430.5" as="sourcePoint" />
            <mxPoint x="287" y="409" as="targetPoint" />
          </mxGeometry>
        </mxCell>
        <mxCell id="FUzFIuwG7qgmaGk0ISnc-52" value="" style="endArrow=classic;html=1;rounded=0;entryX=0.355;entryY=0.954;entryDx=0;entryDy=0;entryPerimeter=0;exitX=1;exitY=0;exitDx=0;exitDy=0;" parent="1" target="FUzFIuwG7qgmaGk0ISnc-3" edge="1" source="XTdCZt_rwrbxKGFYCelY-2">
          <mxGeometry width="50" height="50" relative="1" as="geometry">
            <mxPoint x="279.71000000000004" y="642" as="sourcePoint" />
            <mxPoint x="330" y="600" as="targetPoint" />
          </mxGeometry>
        </mxCell>
        <mxCell id="FUzFIuwG7qgmaGk0ISnc-53" value="" style="endArrow=classic;html=1;rounded=0;entryX=0.415;entryY=-0.004;entryDx=0;entryDy=0;entryPerimeter=0;exitX=0.65;exitY=0.967;exitDx=0;exitDy=0;exitPerimeter=0;" parent="1" target="FUzFIuwG7qgmaGk0ISnc-3" edge="1" source="XLeCKCvdoxdbFb9m1tCh-24">
          <mxGeometry width="50" height="50" relative="1" as="geometry">
            <mxPoint x="337.0005389098908" y="409.11774845906393" as="sourcePoint" />
            <mxPoint x="379.20271820103403" y="559.1268576449934" as="targetPoint" />
          </mxGeometry>
        </mxCell>
        <mxCell id="FUzFIuwG7qgmaGk0ISnc-62" value="" style="endArrow=classic;html=1;rounded=0;entryX=0;entryY=1;entryDx=0;entryDy=0;exitX=0.599;exitY=0.048;exitDx=0;exitDy=0;exitPerimeter=0;" parent="1" target="FUzFIuwG7qgmaGk0ISnc-28" edge="1">
          <mxGeometry width="50" height="50" relative="1" as="geometry">
            <mxPoint x="1400.9665" y="558.0099999999999" as="sourcePoint" />
            <mxPoint x="1444.9330022045888" y="518.8661897823926" as="targetPoint" />
          </mxGeometry>
        </mxCell>
        <mxCell id="FUzFIuwG7qgmaGk0ISnc-63" value="" style="endArrow=classic;html=1;rounded=0;entryX=0.258;entryY=0.101;entryDx=0;entryDy=0;entryPerimeter=0;" parent="1" edge="1">
          <mxGeometry width="50" height="50" relative="1" as="geometry">
            <mxPoint x="1400" y="617" as="sourcePoint" />
            <mxPoint x="1422.7659999999996" y="653.06" as="targetPoint" />
          </mxGeometry>
        </mxCell>
        <mxCell id="FUzFIuwG7qgmaGk0ISnc-65" value="" style="endArrow=classic;html=1;rounded=0;" parent="1" edge="1">
          <mxGeometry width="50" height="50" relative="1" as="geometry">
            <mxPoint x="1499.0005389098908" y="515.1877484590639" as="sourcePoint" />
            <mxPoint x="1524.4729729729647" y="554.7516216216084" as="targetPoint" />
            <Array as="points">
              <mxPoint x="1509" y="530" />
            </Array>
          </mxGeometry>
        </mxCell>
        <mxCell id="FUzFIuwG7qgmaGk0ISnc-66" value="" style="endArrow=classic;html=1;rounded=0;entryX=0.645;entryY=0.985;entryDx=0;entryDy=0;entryPerimeter=0;exitX=1;exitY=0;exitDx=0;exitDy=0;" parent="1" edge="1" target="FUzFIuwG7qgmaGk0ISnc-28" source="FUzFIuwG7qgmaGk0ISnc-31">
          <mxGeometry width="50" height="50" relative="1" as="geometry">
            <mxPoint x="1517" y="677" as="sourcePoint" />
            <mxPoint x="1528.5800000000008" y="619.01" as="targetPoint" />
          </mxGeometry>
        </mxCell>
        <mxCell id="XTdCZt_rwrbxKGFYCelY-2" value="오케이 한다&lt;br&gt;(답한다)" style="ellipse;whiteSpace=wrap;html=1;" vertex="1" parent="1">
          <mxGeometry x="248" y="720" width="74" height="60" as="geometry" />
        </mxCell>
        <mxCell id="XTdCZt_rwrbxKGFYCelY-3" value="" style="endArrow=classic;html=1;rounded=0;exitX=0.662;exitY=1;exitDx=0;exitDy=0;exitPerimeter=0;" edge="1" parent="1">
          <mxGeometry width="50" height="50" relative="1" as="geometry">
            <mxPoint x="219.9469999999999" y="718" as="sourcePoint" />
            <mxPoint x="250" y="740" as="targetPoint" />
          </mxGeometry>
        </mxCell>
        <mxCell id="XTdCZt_rwrbxKGFYCelY-7" value="인터벌 달리기를 &lt;br&gt;잠깐 한다" style="ellipse;whiteSpace=wrap;html=1;" vertex="1" parent="1">
          <mxGeometry x="1210" y="690" width="107" height="50" as="geometry" />
        </mxCell>
        <mxCell id="XTdCZt_rwrbxKGFYCelY-8" value="&amp;lt;&amp;lt;extend&amp;gt;&amp;gt;" style="html=1;verticalAlign=bottom;labelBackgroundColor=none;endArrow=open;endFill=0;dashed=1;rounded=0;entryX=0.921;entryY=0.217;entryDx=0;entryDy=0;entryPerimeter=0;" edge="1" parent="1">
          <mxGeometry x="0.0692" y="3" width="160" relative="1" as="geometry">
            <mxPoint x="1259" y="690" as="sourcePoint" />
            <mxPoint x="1237.3669999999997" y="610.0012899999998" as="targetPoint" />
            <mxPoint as="offset" />
          </mxGeometry>
        </mxCell>
      </root>
    </mxGraphModel>
  </diagram>
</mxfile>
